# xmcd
#
# Track frame offsets:
# 150
# 15062
# 33075
# 49412
# 67050
# 87025
# 99305
# 108800
# 121487
# 140762
# 154525
# 169450
# 188062
# 201375
#
# Disc length: 2895 seconds
#
#
# Revision: 0
# Processed by: cddbd v1.5.1PL0 Copyright (c) Steve Scherf et al.
# Submitted via: FreeRIP 2.941 
#
DISCID=b50b4d0e
DTITLE=Marianne Faithfull - Faithless
DYEAR=1988
DGENRE=Ballad
TTITLE0=Dreamin' My Dreams
TTITLE1=Vanilla O'Lay
TTITLE2=Wait For Me Down By The River
TTITLE3=I'll Be Your Baby Tonight
TTITLE4=Lady Madelaine
TTITLE5=All I Wanna Do In Life
TTITLE6=The Way You Want Me To Be
TTITLE7=Wrong Road Again
TTITLE8=That Was The Day (Nashville)
TTITLE9=This Time
TTITLE10=I'm Not Lisa
TTITLE11=Honky Tonk Angels
TTITLE12=Somebody Loves You
TTITLE13=Georgia
EXTD=
EXTT0=
EXTT1=
EXTT2=
EXTT3=
EXTT4=
EXTT5=
EXTT6=
EXTT7=
EXTT8=
EXTT9=
EXTT10=
EXTT11=
EXTT12=
EXTT13=
PLAYORDER=
